<?xml version="1.0" standalone="no"?><!DOCTYPE svg PUBLIC "-//W3C//DTD SVG 1.1//EN" "http://www.w3.org/Graphics/SVG/1.1/DTD/svg11.dtd"><svg class="icon" width="200px" height="200.00px" viewBox="0 0 1024 1024" version="1.1" xmlns="http://www.w3.org/2000/svg"><path d="M436.89 436.89m-372.89 0a372.89 372.89 0 1 0 745.78 0 372.89 372.89 0 1 0-745.78 0Z" fill="#C199FF" /><path d="M686.89 411.46h-48.37c-11.59-92.67-85.37-165.92-178.33-176.54v-48.04c0-9.32-7.63-16.95-16.95-16.95h-16.95c-9.32 0-16.95 7.63-16.95 16.95v48.69c-90.95 12.34-162.69 84.65-174.1 175.89h-48.37c-9.32 0-16.95 7.63-16.95 16.95v16.95c0 9.32 7.63 16.95 16.95 16.95h48.37c11.4 91.24 83.15 163.54 174.1 175.89v48.69c0 9.32 7.63 16.95 16.95 16.95h16.95c9.32 0 16.95-7.63 16.95-16.95v-48.04c92.97-10.62 166.75-83.87 178.33-176.54h48.37c9.32 0 16.95-7.63 16.95-16.95v-16.95c0-9.32-7.63-16.95-16.95-16.95z m-226.7 179.95v-6.22c0-9.32-7.63-16.95-16.95-16.95h-16.95c-9.32 0-16.95 7.63-16.95 16.95v5.57c-64.9-11.59-115.93-63.26-126.66-128.45h5.89c9.32 0 16.95-7.63 16.95-16.95v-16.95c0-9.32-7.63-16.95-16.95-16.95h-5.89c10.73-65.19 61.76-116.86 126.66-128.45v5.57c0 9.32 7.63 16.95 16.95 16.95h16.95c9.32 0 16.95-7.63 16.95-16.95v-6.22c66.9 10.06 119.94 62.5 130.89 129.1h-5.89c-9.32 0-16.95 7.63-16.95 16.95v16.95c0 9.32 7.63 16.95 16.95 16.95h5.89c-10.95 66.6-63.99 119.04-130.89 129.1z" fill="#FFFFFF" /><path d="M899.35 959.27L711.12 771.05c-0.97-0.97-0.97-2.57 0-3.54l56.39-56.39c0.97-0.97 2.57-0.97 3.54 0l188.22 188.22c0.97 0.97 0.97 2.57 0 3.54l-56.39 56.39c-0.97 0.97-2.56 0.97-3.53 0z" fill="#9457EA" /></svg>